#!OML:ASF I:\Actors\actors\Patient Classification 2\Patient 1\Session 1\actor1.ASF
:FULLY-SPECIFIED
:DEGREES
583
root -1.04565 18.9354 4.74594 20.4045 6.635 -1.56994
lowerback 28.2243 3.81862 4.4154
upperback 3.75223 6.0737 -1.17403
thorax -10.7534 2.5958 -6.06088
lowerneck -7.71747 -1.01308 4.30257
upperneck 18.1948 -1.25424 -3.83391
head 6.75151 -0.6021 -2.0479
rclavicle 3.02153e-014 -2.22639e-014
rhumerus 44.4125 -6.08895 -27.7049
rradius 42.5673
rwrist 33.8724
rhand -2.10407 -31.4139
rfingers 7.12502
rthumb 23.5736 -59.9891
lclavicle 3.02153e-014 -2.22639e-014
lhumerus -58.4068 2.07913 82.0122
lradius 60.6697
lwrist 33.3715
lhand -3.21824 -8.55984
lfingers 7.12502
lthumb 22.5045 20.1488
rfemur 0 0 0
rtibia 0
rfoot 0 0
rtoes 0
lfemur -32.1809 -6.51352 -7.11029
ltibia 23.4183
lfoot -13.5116 12.135
ltoes -56.3334
584
root -1.04158 18.9334 4.73748 20.3444 7.54976 -1.6006
lowerback 28.3992 4.07745 5.17874
upperback 3.76754 6.69861 -0.718617
thorax -10.7184 2.86398 -6.20506
lowerneck -7.91564 -1.13283 4.29282
upperneck 17.9227 -1.63938 -2.66195
head 6.69864 -0.693987 -1.69696
rclavicle 6.20208e-014 1.43125e-014
rhumerus 43.1096 -7.39746 -28.6546
rradius 41.561
rwrist 35.1595
rhand -2.41171 -31.4268
rfingers 7.12502
rthumb 23.2785 -60.0396
lclavicle 6.20208e-014 1.43125e-014
lhumerus -58.4857 2.39354 82.2948
lradius 60.7586
lwrist 34.852
lhand -2.57843 -9.47797
lfingers 7.12502
lthumb 23.1185 19.155
rfemur 0 0 0
rtibia 0
rfoot 0 0
rtoes 0
lfemur -32.4535 -6.90236 -6.93261
ltibia 23.4655
lfoot -13.2466 11.8453
ltoes -56.5888
585
root -1.03919 18.9323 4.72973 20.2996 8.4458 -1.60412
lowerback 28.4077 4.28223 5.75177
upperback 3.82331 7.19955 -0.176892
thorax -10.5989 3.09124 -6.08004
lowerneck -8.08426 -1.2092 4.06548
upperneck 17.6002 -1.9108 -1.58403
head 6.633 -0.754866 -1.33231
rclavicle 4.69132e-014 7.95139e-015
rhumerus 42.014 -8.68499 -29.4365
rradius 40.7547
rwrist 36.1543
rhand -3.3072 -31.8837
rfingers 7.12502
rthumb 22.4191 -60.6026
lclavicle 4.69132e-014 7.95139e-015
lhumerus -58.5893 3.17433 82.4496
lradius 60.7688
lwrist 36.1391
lhand -0.984567 -10.1352
lfingers 7.12502
lthumb 24.647 18.2977
rfemur 0 0 0
rtibia 0
rfoot 0 0
rtoes 0
lfemur -32.7488 -7.1928 -6.81667
ltibia 23.5495
lfoot -12.9969 11.4696
ltoes -56.7995
586
root -1.03623 18.9323 4.72676 20.202 9.26372 -1.53037
lowerback 28.4307 4.47347 6.1749
upperback 3.88395 7.63279 0.322848
thorax -10.504 3.29124 -5.89591
lowerneck -8.2071 -1.27875 3.87606
upperneck 17.1886 -2.16925 -0.51321
head 6.53411 -0.810198 -0.975814
rclavicle -4.85035e-014 -1.74931e-014
rhumerus 40.9158 -9.9411 -30.1195
rradius 40.1235
rwrist 37.3325
rhand -4.75195 -32.3368
rfingers 7.12502
rthumb 21.0317 -61.2164
lclavicle -4.85035e-014 -1.74931e-014
lhumerus -58.77 4.27602 82.2518
lradius 60.6286
lwrist 37.1578
lhand 1.26202 -10.4555
lfingers 7.12502
lthumb 26.7986 17.6659
rfemur 0 0 0
rtibia 0
rfoot 0 0
rtoes 0
lfemur -32.8768 -7.5414 -6.78411
ltibia 23.522
lfoot -12.7242 11.1258
ltoes -56.9105
587
root -1.02628 18.928 4.71209 20.6083 9.85274 -1.50969
lowerback 27.9056 4.73677 6.48414
upperback 3.82396 8.08462 0.744587
thorax -10.2713 3.51257 -5.69005
lowerneck -8.48459 -1.29708 3.90485
upperneck 16.8691 -2.35269 0.317956
head 6.49027 -0.834583 -0.729794
rclavicle 1.09729e-013 -8.5875e-014
rhumerus 39.8353 -11.0275 -30.4996
rradius 39.5871
rwrist 38.9945
rhand -6.27013 -32.4113
rfingers 7.12502
rthumb 19.5727 -61.446
lclavicle 1.09729e-013 -8.5875e-014
lhumerus -59.0686 5.64022 81.9266
lradius 60.9182
lwrist 39.5192
lhand 2.28543 -8.63435
lfingers 7.12502
lthumb 27.7775 19.3331
rfemur 0 0 0
rtibia 0
rfoot 0 0
rtoes 0
lfemur -33.5673 -7.98593 -6.55441
ltibia 23.4965
lfoot -12.5293 11.1734
ltoes -56.8721
588
root -1.02472 18.9333 4.72626 19.9499 10.9914 -1.33284
lowerback 28.4433 4.66577 6.94149
upperback 3.99745 8.22594 1.28631
thorax -10.3519 3.56611 -5.43007
lowerneck -8.78004 -1.2774 3.76969
upperneck 16.5773 -2.47676 1.26069
head 6.46419 -0.831251 -0.417716
rclavicle -3.33958e-014 3.02153e-014
rhumerus 38.697 -11.958 -30.5262
rradius 39.1031
rwrist 40.8568
rhand -7.58235 -32.0472
rfingers 7.12502
rthumb 18.3107 -61.2054
lclavicle -3.33958e-014 3.02153e-014
lhumerus -59.4224 6.98246 81.4714
lradius 61.103
lwrist 42.0643
lhand 3.09227 -6.94344
lfingers 7.12502
lthumb 28.5487 20.897
rfemur 0 0 0
rtibia 0
rfoot 0 0
rtoes 0
lfemur -33.0579 -8.75874 -6.5895
ltibia 23.442
lfoot -12.3663 10.6947
ltoes -56.9294
589
root -1.01724 18.9336 4.72617 19.8065 11.7524 -1.25829
lowerback 28.4144 4.81476 7.38875
upperback 4.02744 8.60372 1.73937
thorax -10.2666 3.73845 -5.28857
lowerneck -9.00637 -1.35854 3.39802
upperneck 16.2149 -2.73242 2.45874
head 6.41069 -0.886551 0.00403675
rclavicle -2.70347e-014 3.18055e-015
rhumerus 37.1985 -12.9168 -30.2216
rradius 38.7125
rwrist 42.2691
rhand -8.77598 -31.5429
rfingers 7.12502
rthumb 17.1621 -60.805
lclavicle -2.70347e-014 3.18055e-015
lhumerus -59.8192 7.99798 80.951
lradius 61.1491
lwrist 44.7644
lhand 3.78928 -5.37006
lfingers 7.12502
lthumb 29.2145 22.3566
rfemur 0 0 0
rtibia 0
rfoot 0 0
rtoes 0
lfemur -33.0938 -9.19539 -6.55761
ltibia 23.3975
lfoot -12.1244 10.4279
ltoes -57.0608
590
root -1.00922 18.9339 4.72842 19.6472 12.4575 -1.16012
lowerback 28.4132 5.01141 7.79206
upperback 4.02624 9.03517 2.20297
thorax -10.2346 3.93289 -5.13299
lowerneck -9.11441 -1.49581 2.9205
upperneck 15.7456 -3.02737 3.64552
head 6.30735 -0.972449 0.43624
rclavicle -1.00187e-013 4.29375e-014
rhumerus 35.559 -13.8427 -29.6889
rradius 38.397
rwrist 42.9071
rhand -9.71571 -31.635
rfingers 7.12502
rthumb 16.2574 -60.9734
lclavicle -1.00187e-013 4.29375e-014
lhumerus -60.327 9.04848 80.3185
lradius 61.1056
lwrist 47.1166
lhand 4.33254 -3.83054
lfingers 7.12502
lthumb 29.7331 23.8047
rfemur 0 0 0
rtibia 0
rfoot 0 0
rtoes 0
lfemur -33.0637 -9.6409 -6.55827
ltibia 23.322
lfoot -11.9329 10.1871
ltoes -57.1299
591
root -1.0027 18.9343 4.73209 19.4449 13.1546 -1.11463
lowerback 28.4313 5.19935 8.15622
upperback 4.03098 9.4494 2.69642
thorax -10.2214 4.12005 -4.9185
lowerneck -9.19255 -1.59063 2.62482
upperneck 15.1909 -3.23516 4.56003
head 6.16801 -1.03214 0.758077
rclavicle -5.725e-014 2.8625e-014
rhumerus 34.0813 -14.9779 -29.3966
rradius 38.1169
rwrist 43.3384
rhand -10.3619 -32.4553
rfingers 7.12502
rthumb 15.6351 -61.8435
lclavicle -5.725e-014 2.8625e-014
lhumerus -60.9144 10.1197 79.5843
lradius 61.0386
lwrist 49.3764
lhand 4.37977 -2.32801
lfingers 7.12502
lthumb 29.7782 25.2992
rfemur 0 0 0
rtibia 0
rfoot 0 0
rtoes 0
lfemur -33.0087 -10.0915 -6.49559
ltibia 23.2915
lfoot -11.8163 9.94221
ltoes -57.1444
592
root -0.994253 18.9352 4.73379 19.2307 13.82 -1.07617
lowerback 28.4724 5.4301 8.5433
upperback 4.0584 9.91986 3.14857
thorax -10.1773 4.33403 -4.78024
lowerneck -9.55406 -1.7418 2.61374
upperneck 14.7631 -3.53658 5.22199
head 6.11362 -1.1335 0.942572
rclavicle 1.00187e-013 3.18055e-015
rhumerus 32.6062 -16.7085 -29.4958
rradius 37.9185
rwrist 44.2685
rhand -10.9643 -33.5847
rfingers 7.12502
rthumb 15.0549 -63.0173
lclavicle 1.00187e-013 3.18055e-015
lhumerus -61.4278 10.959 78.7632
lradius 60.9346
lwrist 51.8967
lhand 3.90475 -0.761687
lfingers 7.12502
lthumb 29.3248 26.9458
rfemur 0 0 0
rtibia 0
rfoot 0 0
rtoes 0
lfemur -32.9221 -10.5112 -6.4581
ltibia 23.2357
lfoot -11.6651 9.71014
ltoes -57.1796
593
root -0.984615 18.9359 4.73159 19.0634 14.5219 -0.902014
lowerback 28.5144 5.63671 8.89818
upperback 4.08073 10.3456 3.55568
thorax -10.1431 4.5272 -4.65971
lowerneck -10.0941 -1.93079 2.40534
upperneck 14.4853 -3.89989 6.06491
head 6.14845 -1.25285 1.20934
rclavicle -6.04305e-014 3.81667e-014
rhumerus 31.3397 -18.8932 -29.9321
rradius 37.6553
rwrist 45.8741
rhand -11.6576 -34.2793
rfingers 7.12502
rthumb 14.387 -63.7607
lclavicle -6.04305e-014 3.81667e-014
lhumerus -61.9214 11.8556 77.757
lradius 60.6468
lwrist 54.1306
lhand 3.34454 0.526843
lfingers 7.12502
lthumb 28.7897 28.3266
rfemur 0 0 0
rtibia 0
rfoot 0 0
rtoes 0
lfemur -32.8715 -10.9983 -6.55188
ltibia 23.163
lfoot -11.5278 9.48965
ltoes -57.1819
594
root -0.978309 18.9359 4.73111 18.9268 15.2957 -0.668737
lowerback 28.3632 5.76696 9.43563
upperback 4.22477 10.6796 3.87122
thorax -9.8278 4.69645 -4.67209
lowerneck -10.7872 -2.16085 1.95304
upperneck 14.0766 -4.30798 7.1325
head 6.18367 -1.38961 1.581
rclavicle -3.65764e-014 -2.22639e-014
rhumerus 30.2912 -21.4418 -30.4297
rradius 37.2807
rwrist 47.7597
rhand -12.3213 -34.3141
rfingers 7.12502
rthumb 13.7474 -63.84
lclavicle -3.65764e-014 -2.22639e-014
lhumerus -62.087 13.1003 76.3872
lradius 60.0131
lwrist 55.6072
lhand 2.86972 1.64269
lfingers 7.12502
lthumb 28.3361 29.5187
rfemur 0 0 0
rtibia 0
rfoot 0 0
rtoes 0
lfemur -32.8446 -11.4245 -6.70816
ltibia 23.0843
lfoot -11.3969 9.13815
ltoes -57.1528
595
root -0.96858 18.9352 4.73697 18.7473 16.0512 -0.511012
lowerback 28.443 5.93914 9.51155
upperback 4.09755 11.031 4.48229
thorax -10.0956 4.84282 -4.17299
lowerneck -10.8813 -2.37976 1.26407
upperneck 13.6424 -4.59198 8.00168
head 6.10725 -1.50789 1.94344
rclavicle -1.78111e-013 -2.54444e-014
rhumerus 28.852 -22.5978 -29.6834
rradius 37.111
rwrist 48.6977
rhand -12.7676 -34.638
rfingers 7.12502
rthumb 13.3172 -64.1925
lclavicle -1.78111e-013 -2.54444e-014
lhumerus -63.0574 15.042 74.5975
lradius 59.4533
lwrist 56.858
lhand 1.79933 3.40743
lfingers 7.12502
lthumb 27.3127 31.449
rfemur 0 0 0
rtibia 0
rfoot 0 0
rtoes 0
lfemur -32.7665 -11.7779 -6.83
ltibia 23.0407
lfoot -11.2898 8.69357
ltoes -57.0784
596
root -0.949172 18.9319 4.74517 18.487 16.7718 -0.403645
lowerback 28.2759 6.099 10.1358
upperback 4.21184 11.4366 4.87551
thorax -9.79955 5.04173 -4.16443
lowerneck -11.2791 -2.75718 0.713713
upperneck 12.9793 -5.11777 8.99104
head 6.02849 -1.72731 2.29612
rclavicle 6.99722e-014 -1.90833e-014
rhumerus 26.7282 -23.7127 -28.0192
rradius 37.0695
rwrist 48.7778
rhand -12.8902 -35.5848
rfingers 7.12502
rthumb 13.1991 -65.147
lclavicle 6.99722e-014 -1.90833e-014
lhumerus -63.4579 16.5767 72.736
lradius 58.8448
lwrist 58.0448
lhand 0.0781422 5.14594
lfingers 7.12502
lthumb 25.6652 33.4359
rfemur 0 0 0
rtibia 0
rfoot 0 0
rtoes 0
lfemur -32.6314 -12.1996 -6.9402
ltibia 23.0639
lfoot -11.2631 8.31788
ltoes -57.0023
597
root -0.922302 18.9269 4.7458 18.0661 17.6911 -0.541729
lowerback 28.1789 6.1247 11.3604
upperback 4.31249 11.8381 5.16949
thorax -9.40687 5.22464 -4.57563
lowerneck -11.8389 -3.18448 0.63712
upperneck 12.4117 -5.75582 9.7114
head 6.0028 -1.98886 2.47276
rclavicle -2.54444e-014 0
rhumerus 24.1163 -24.7497 -26.0609
rradius 37.0662
rwrist 48.4482
rhand -12.9702 -36.5159
rfingers 7.12502
rthumb 13.1219 -66.083
lclavicle -2.54444e-014 0
lhumerus -63.6676 17.673 70.754
lradius 57.9304
lwrist 58.4636
lhand -1.43657 6.11471
lfingers 7.12502
lthumb 24.2137 34.606
rfemur 0 0 0
rtibia 0
rfoot 0 0
rtoes 0
lfemur -32.4592 -12.6606 -6.82038
ltibia 23.106
lfoot -11.1832 7.91493
ltoes -57.0628
